<svg width="100" height="100" viewBox="0 0 100 100" fill="none" xmlns="http://www.w3.org/2000/svg">
<path fill-rule="evenodd" clip-rule="evenodd" d="M6.25 40.625C6.25 56.6934 16.8824 70.1868 31.25 73.9532V67.4286C20.4769 63.8411 12.5 53.3304 12.5 40.625C12.5 24.8765 24.7556 12.5 39.4009 12.5C51.8246 12.5 62.5286 21.4064 65.4902 33.7223L65.4996 33.7185C65.9179 35.4273 66.1845 37.199 66.2838 39.0171C68.231 38.0412 70.3975 37.5 72.6541 37.5C80.6416 37.5 87.5 44.28 87.5 53.125C87.5 61.908 80.7373 68.6548 72.8217 68.7489V68.75H71.875V74.9852C72.1335 74.995 72.3932 74.9999 72.6541 74.9999C84.305 74.9999 93.75 65.2061 93.75 53.125C93.75 41.0438 84.305 31.25 72.6541 31.25C72.2045 31.25 71.7583 31.2646 71.3157 31.2933C67.394 16.843 54.5905 6.25 39.4009 6.25C21.0922 6.25 6.25 21.6402 6.25 40.625ZM53.6499 51.3916L41.1498 70.1416L37.9109 75H43.75H53.2633L43.3 88.7953L48.3667 92.4547L61.9084 73.7047L65.4867 68.75H59.375H49.5891L58.8502 54.8584L53.6499 51.3916Z" fill="url(#paint0_linear_7_2311)"/>
<defs>
<linearGradient id="paint0_linear_7_2311" x1="50" y1="6.25" x2="50" y2="92.4547" gradientUnits="userSpaceOnUse">
<stop stop-color="#CED3EA"/>
<stop offset="1" stop-color="#7E83A9"/>
</linearGradient>
</defs>
</svg>
