<svg width="100" height="100" viewBox="0 0 100 100" fill="none" xmlns="http://www.w3.org/2000/svg">
<path fill-rule="evenodd" clip-rule="evenodd" d="M87.4998 53.4629C87.4998 60.5655 82.8801 66.5247 76.5625 68.5326V74.9998C86.3911 72.8373 93.7498 64.0161 93.7498 53.4629C93.7498 41.2883 83.956 31.4187 71.8748 31.4187C71.2551 31.4187 70.6413 31.4447 70.0346 31.4957C65.5516 18.6129 53.3776 9.375 39.0625 9.375C20.9407 9.375 6.25 24.1793 6.25 42.4413C6.25 56.2431 14.641 68.0698 26.5625 73.0236V66.1069C18.2067 61.5999 12.5 52.7126 12.5 42.4413C12.5 27.5856 24.4377 15.625 39.0625 15.625C50.3857 15.625 60.0981 22.7949 63.9062 32.9271L63.9322 32.9169C64.6545 34.8724 65.1608 36.9356 65.4215 39.0763C67.392 38.1716 69.5781 37.6687 71.8748 37.6687C80.4589 37.6687 87.4998 44.6945 87.4998 53.4629ZM71.875 56.25H40.625V62.5H71.875V56.25ZM65.625 68.75H34.375V75H65.625V68.75ZM40.625 81.25H71.875V87.5H40.625V81.25Z" fill="url(#paint0_linear_7_2216)"/>
<defs>
<linearGradient id="paint0_linear_7_2216" x1="49.9999" y1="9.375" x2="49.9999" y2="87.5" gradientUnits="userSpaceOnUse">
<stop stop-color="#CED3EA"/>
<stop offset="1" stop-color="#7E83A9"/>
</linearGradient>
</defs>
</svg>
