<svg width="100" height="100" viewBox="0 0 100 100" fill="none" xmlns="http://www.w3.org/2000/svg">
<path fill-rule="evenodd" clip-rule="evenodd" d="M46.875 15.625V6.25H53.125V15.625H46.875ZM64.4814 18.6682L69.1689 10.5492L74.5815 13.6742L69.894 21.7932L64.4814 18.6682ZM50 71.875C62.0812 71.875 71.875 62.0812 71.875 50C71.875 37.9188 62.0812 28.125 50 28.125C37.9188 28.125 28.125 37.9188 28.125 50C28.125 62.0812 37.9188 71.875 50 71.875ZM50 78.125C65.533 78.125 78.125 65.533 78.125 50C78.125 34.467 65.533 21.875 50 21.875C34.467 21.875 21.875 34.467 21.875 50C21.875 65.533 34.467 78.125 50 78.125ZM84.375 46.875H93.75V53.125H84.375V46.875ZM86.326 25.4187L78.207 30.1062L81.332 35.5188L89.451 30.8313L86.326 25.4187ZM25.4187 13.6742L30.1062 21.7932L35.5188 18.6682L30.8313 10.5492L25.4187 13.6742ZM18.668 35.5188L10.549 30.8313L13.674 25.4187L21.793 30.1062L18.668 35.5188ZM46.875 84.375V93.75H53.125V84.375H46.875ZM15.625 46.875H6.25V53.125H15.625V46.875ZM10.5488 69.1687L18.6678 64.4812L21.7928 69.8938L13.6738 74.5813L10.5488 69.1687ZM30.1064 78.2074L25.4189 86.3264L30.8315 89.4514L35.519 81.3324L30.1064 78.2074ZM69.1687 89.4514L64.4812 81.3324L69.8938 78.2074L74.5813 86.3264L69.1687 89.4514ZM78.2072 69.8938L86.3262 74.5813L89.4512 69.1687L81.3322 64.4812L78.2072 69.8938Z" fill="url(#paint0_linear_7_1731)"/>
<defs>
<linearGradient id="paint0_linear_7_1731" x1="50" y1="6.25" x2="50" y2="93.75" gradientUnits="userSpaceOnUse">
<stop stop-color="#EFC977"/>
<stop offset="1" stop-color="#E07256"/>
</linearGradient>
</defs>
</svg>
