<svg width="100" height="100" viewBox="0 0 100 100" fill="none" xmlns="http://www.w3.org/2000/svg">
<path fill-rule="evenodd" clip-rule="evenodd" d="M75 74.8662C85.5469 73.6562 93.75 64.3839 93.75 53.125C93.75 41.0438 84.305 31.25 72.6541 31.25C72.2045 31.25 71.7583 31.2646 71.3157 31.2933C67.394 16.843 54.5905 6.25 39.4009 6.25C21.0922 6.25 6.25 21.6402 6.25 40.625C6.25 56.6934 16.8824 70.1868 31.25 73.9532V67.4286C20.4769 63.8411 12.5 53.3304 12.5 40.625C12.5 24.8765 24.7556 12.5 39.4009 12.5C51.8246 12.5 62.5286 21.4064 65.4902 33.7223L65.4996 33.7185C65.9179 35.4273 66.1845 37.199 66.2838 39.0171C68.231 38.0412 70.3975 37.5 72.6541 37.5C80.6416 37.5 87.5 44.28 87.5 53.125C87.5 61.0895 81.939 67.3797 75 68.553V74.8662ZM42.1939 87.5066C42.9507 87.5066 43.7569 86.8502 43.7566 85.8002C43.7564 85.2251 43.5591 84.1446 42.9485 82.5524C42.7051 81.9176 42.4207 81.2642 42.1075 80.6055C41.1728 82.6365 40.6298 84.4615 40.6302 85.8002C40.6306 86.8502 41.4372 87.5066 42.1939 87.5066ZM38.4135 74.2414C40.3215 71.032 42.1882 68.75 42.1882 68.75C42.1882 68.75 43.9683 71.1108 45.8297 74.3055C47.8688 77.8053 50.0055 82.3059 50.0066 85.8002C50.008 90.1944 46.511 93.7566 42.1959 93.7566C37.8808 93.7566 34.3816 90.1944 34.3802 85.8002C34.3791 81.9656 36.4188 77.5967 38.4135 74.2414ZM62.5066 76.4252C62.5069 77.4752 61.7007 78.1316 60.9439 78.1316C60.1872 78.1316 59.3806 77.4752 59.3802 76.4252C59.3798 75.0865 59.9228 73.2615 60.8575 71.2305C61.1707 71.8892 61.4551 72.5426 61.6985 73.1774C62.3091 74.7696 62.5064 75.8501 62.5066 76.4252ZM60.9382 59.375C60.9382 59.375 59.0715 61.657 57.1635 64.8664C55.1688 68.2217 53.1291 72.5906 53.1302 76.4252C53.1316 80.8194 56.6308 84.3816 60.9459 84.3816C65.261 84.3816 68.758 80.8194 68.7566 76.4252C68.7555 72.9309 66.6188 68.4303 64.5797 64.9305C62.7183 61.7358 60.9382 59.375 60.9382 59.375Z" fill="url(#paint0_linear_7_2181)"/>
<defs>
<linearGradient id="paint0_linear_7_2181" x1="50" y1="6.25" x2="50" y2="93.7566" gradientUnits="userSpaceOnUse">
<stop stop-color="#95B6F6"/>
<stop offset="1" stop-color="#5193DE"/>
</linearGradient>
</defs>
</svg>
