<svg width="100" height="100" viewBox="0 0 100 100" fill="none" xmlns="http://www.w3.org/2000/svg">
<path fill-rule="evenodd" clip-rule="evenodd" d="M36.0367 25.1748C37.143 25.0592 38.2653 25 39.4009 25C54.5905 25 67.394 35.593 71.3157 50.0433C71.6296 50.023 71.9454 50.0097 72.2628 50.0037C72.1338 50.0015 72.0045 50.0003 71.8749 50.0003L71.7701 50.0006L71.77 50H76.5624H76.7506V49.9984C82.7044 49.898 87.4999 45.0403 87.4999 39.0625C87.4999 33.0219 82.603 28.125 76.5624 28.125C74.5342 28.125 72.635 28.677 71.0067 29.6391C71.0019 27.893 70.7367 26.2082 70.248 24.6214C67.813 17.5671 61.1146 12.5 53.2328 12.5C45.1464 12.5 38.3057 17.8336 36.0367 25.1748ZM84.927 54.0808C90.2691 58.0496 93.75 64.5408 93.75 71.875C93.75 83.9561 84.305 93.7499 72.6541 93.7499C72.3932 93.7499 72.1335 93.745 71.875 93.7352V93.75H39.8973V93.7462C39.7321 93.7487 39.5666 93.75 39.4009 93.75C21.0922 93.75 6.25 78.3598 6.25 59.375C6.25 44.0448 15.9279 31.0584 29.2941 26.6268C31.1466 15.0752 41.1591 6.25 53.2328 6.25C63.5918 6.25 72.4334 12.7464 75.9059 21.8873C76.1237 21.8791 76.3426 21.875 76.5624 21.875C86.0548 21.875 93.7499 29.5701 93.7499 39.0625C93.7499 45.5184 90.1905 51.143 84.927 54.0808ZM71.875 87.5H39.8973H39.5376V87.4996L39.4009 87.5C24.7556 87.5 12.5 75.1235 12.5 59.375C12.5 43.6265 24.7556 31.25 39.4009 31.25C51.8246 31.25 62.5286 40.1564 65.4902 52.4723L65.4996 52.4685C65.9179 54.1773 66.1845 55.949 66.2838 57.7671C68.231 56.7912 70.3975 56.25 72.6541 56.25C80.6416 56.25 87.5 63.03 87.5 71.875C87.5 80.658 80.7373 87.4048 72.8217 87.4989V87.5H71.875Z" fill="url(#paint0_linear_7_2152)"/>
<defs>
<linearGradient id="paint0_linear_7_2152" x1="50" y1="6.25" x2="50" y2="93.75" gradientUnits="userSpaceOnUse">
<stop stop-color="#95B6F6"/>
<stop offset="1" stop-color="#5193DE"/>
</linearGradient>
</defs>
</svg>
