<svg width="100" height="100" viewBox="0 0 100 100" fill="none" xmlns="http://www.w3.org/2000/svg">
<path fill-rule="evenodd" clip-rule="evenodd" d="M43.7327 50.0037L27.7531 59.35L15.0866 53.5357L12.4865 59.2555L21.1306 63.2234L16.3759 66.0044L19.4705 71.4345L24.2245 68.654L23.2946 78.2202L29.4843 78.7989L30.847 64.7805L46.8341 55.4299V74.2276L35.5218 82.438L39.193 87.4961L46.8341 81.9503V87.5H53.0841V81.95L60.7255 87.4961L64.3967 82.438L53.0841 74.2273V55.4733L69.1069 64.8448L70.4697 78.8646L76.6594 78.2859L75.7294 68.7182L80.4844 71.4994L83.579 66.0693L78.8247 63.2886L87.4676 59.3212L84.8674 53.6014L72.2022 59.4151L56.1113 50.0037L72.1526 40.6214L84.9015 46.4735L87.5016 40.7537L78.7751 36.7479L83.5853 33.9345L80.4907 28.5044L75.7725 31.2641L76.6935 21.789L70.5037 21.2103L69.1499 35.1375L53.0841 44.5342V25.8361L64.4694 17.5727L60.7982 12.5146L53.0841 18.1134V12.5H46.8341V18.0077L39.2657 12.5146L35.5945 17.5727L46.8341 25.7303V44.5776L30.8961 35.2557L29.5245 21.1453L23.3348 21.724L24.2736 31.3822L19.4642 28.5693L16.3696 33.9994L21.0876 36.7589L12.5266 40.6887L15.1268 46.4085L27.7101 40.6323L43.7327 50.0037Z" fill="url(#paint0_radial_7_2200)"/>
<defs>
<radialGradient id="paint0_radial_7_2200" cx="0" cy="0" r="1" gradientUnits="userSpaceOnUse" gradientTransform="translate(49.994 50) rotate(90) scale(37.5 37.5076)">
<stop stop-color="white"/>
<stop offset="1" stop-color="#EEF6FF"/>
</radialGradient>
</defs>
</svg>
