<svg width="100" height="100" viewBox="0 0 100 100" fill="none" xmlns="http://www.w3.org/2000/svg">
<path fill-rule="evenodd" clip-rule="evenodd" d="M6.25 40.625C6.25 54.2586 13.9043 66.0384 25 71.5959V64.3758C17.5318 59.4226 12.5 50.7161 12.5 40.625C12.5 24.8764 24.7556 12.5 39.4009 12.5C51.8246 12.5 62.5286 21.4064 65.4902 33.7223L65.4996 33.7185C65.9179 35.4273 66.1845 37.199 66.2838 39.0171C68.231 38.0412 70.3975 37.5 72.6541 37.5C80.6416 37.5 87.5 44.28 87.5 53.125C87.5 58.4703 84.9952 63.0614 81.25 65.8577V73.1075C88.6164 69.6952 93.75 62.0317 93.75 53.125C93.75 41.0438 84.305 31.25 72.6541 31.25C72.2045 31.25 71.7583 31.2646 71.3157 31.2933C67.394 16.843 54.5905 6.25 39.4009 6.25C21.0922 6.25 6.25 21.6402 6.25 40.625ZM58.4968 63.1331C59.152 63.5116 60.1785 63.3464 60.7034 62.4369C60.9909 61.9389 61.3604 60.9045 61.628 59.2204C61.7347 58.549 61.8151 57.8409 61.8734 57.1138C60.0482 58.4051 58.6653 59.7139 57.9961 60.8733C57.4713 61.7828 57.8415 62.7547 58.4968 63.1331ZM61.8575 49.7554C65.1148 47.9305 67.8726 46.888 67.8726 46.888C67.8726 46.888 68.2334 49.8226 68.2474 53.52C68.2629 57.5705 67.8623 62.5364 66.1156 65.5628C63.9191 69.3686 59.1093 70.7044 55.3726 68.5463C51.6359 66.3881 50.3874 61.5534 52.584 57.7475C54.5007 54.4264 58.4521 51.6633 61.8575 49.7554ZM37.8629 66.3134C38.5182 66.6919 39.5447 66.5267 40.0695 65.6172C40.357 65.1192 40.7265 64.0848 40.9941 62.4007C41.1008 61.7293 41.1812 61.0212 41.2395 60.2941C39.4143 61.5854 38.0314 62.8942 37.3623 64.0536C36.8374 64.9631 37.2076 65.935 37.8629 66.3134ZM41.2236 52.9357C44.4809 51.1108 47.2387 50.0683 47.2387 50.0683C47.2387 50.0683 47.5995 53.0029 47.6136 56.7003C47.629 60.7508 47.2284 65.7167 45.4817 68.7431C43.2852 72.5489 38.4754 73.8847 34.7387 71.7266C31.002 69.5684 29.7535 64.7337 31.9501 60.9278C33.8668 57.6067 37.8182 54.8436 41.2236 52.9357ZM67.7478 81.6027C67.223 82.5121 66.1965 82.6773 65.5412 82.2989C64.8859 81.9204 64.5157 80.9485 65.0406 80.0391C65.7097 78.8796 67.0926 77.5709 68.9178 76.2796C68.8595 77.0066 68.7791 77.7147 68.6724 78.3861C68.4048 80.0702 68.0353 81.1046 67.7478 81.6027ZM74.917 66.0537C74.917 66.0537 72.1592 67.0962 68.9019 68.9211C65.4965 70.829 61.5451 73.5921 59.6284 76.9132C57.4318 80.7191 58.6803 85.5539 62.417 87.712C66.1537 89.8701 70.9635 88.5344 73.16 84.7285C74.9067 81.7021 75.3073 76.7362 75.2919 72.6857C75.2778 68.9883 74.917 66.0537 74.917 66.0537ZM44.5464 87.3048C45.2017 87.6832 46.2282 87.518 46.7531 86.6086C47.0405 86.1105 47.41 85.0761 47.6776 83.392C47.7843 82.7206 47.8648 82.0125 47.923 81.2854C46.0978 82.5768 44.7149 83.8855 44.0458 85.045C43.5209 85.9544 43.8911 86.9263 44.5464 87.3048ZM47.9071 73.927C51.1644 72.1021 53.9222 71.0596 53.9222 71.0596C53.9222 71.0596 54.283 73.9942 54.2971 77.6916C54.3125 81.7421 53.9119 86.708 52.1653 89.7344C49.9687 93.5403 45.1589 94.876 41.4222 92.7179C37.6856 90.5598 36.4371 85.725 38.6336 81.9191C40.5504 78.598 44.5017 75.8349 47.9071 73.927Z" fill="url(#paint0_linear_7_1946)"/>
<defs>
<linearGradient id="paint0_linear_7_1946" x1="50" y1="6.25" x2="50" y2="93.7501" gradientUnits="userSpaceOnUse">
<stop stop-color="#95B6F6"/>
<stop offset="1" stop-color="#5193DE"/>
</linearGradient>
</defs>
</svg>
